<svg width="64" height="64" viewBox="0 0 64 64" fill="none" xmlns="http://www.w3.org/2000/svg">
<path d="M10.4917 32.0001H8.39349C7.76399 32.0001 7.34436 31.5805 7.34436 30.951C7.34436 30.3215 7.76399 29.9019 8.39349 29.9019H10.4919C11.1214 29.9019 11.541 30.3215 11.541 30.951C11.541 31.5805 11.1212 32.0001 10.4917 32.0001Z" fill="#FFE100"/>
<path d="M10.4917 27.8033H8.39349C7.76399 27.8033 7.34436 27.3837 7.34436 26.7542C7.34436 26.1247 7.76399 25.7051 8.39349 25.7051H10.4919C11.1214 25.7051 11.541 26.1247 11.541 26.7542C11.541 27.3837 11.1212 27.8033 10.4917 27.8033Z" fill="#FFE100"/>
<path d="M10.4917 23.6066H8.39349C7.76399 23.6066 7.34436 23.1869 7.34436 22.5574C7.34436 21.9279 7.76399 21.5083 8.39349 21.5083H10.4919C11.1214 21.5083 11.541 21.9279 11.541 22.5574C11.541 23.1869 11.1212 23.6066 10.4917 23.6066Z" fill="#FFE100"/>
<path d="M10.4917 19.41H8.39349C7.76399 19.41 7.34436 18.9904 7.34436 18.3609C7.34436 17.7314 7.76399 17.3118 8.39349 17.3118H10.4919C11.1214 17.3118 11.541 17.7314 11.541 18.3609C11.541 18.9904 11.1212 19.41 10.4917 19.41Z" fill="#FFE100"/>
<path d="M10.4917 15.2132H8.39349C7.76399 15.2132 7.34436 14.7936 7.34436 14.1641C7.34436 13.5346 7.76399 13.115 8.39349 13.115H10.4919C11.1214 13.115 11.541 13.5346 11.541 14.1641C11.541 14.7936 11.1212 15.2132 10.4917 15.2132Z" fill="#FFE100"/>
<path d="M10.4917 11.0165H8.39349C7.76399 11.0165 7.34436 10.5968 7.34436 9.96734C7.34436 9.33784 7.76399 8.91821 8.39349 8.91821H10.4919C11.1214 8.91821 11.541 9.33784 11.541 9.96734C11.541 10.5968 11.1212 11.0165 10.4917 11.0165Z" fill="#FFE100"/>
<path d="M10.4917 6.81969H8.39349C7.76399 6.81969 7.34436 6.40006 7.34436 5.77056C7.34436 5.14106 7.76399 4.72144 8.39349 4.72144H10.4919C11.1214 4.72144 11.541 5.14106 11.541 5.77056C11.541 6.40006 11.1212 6.81969 10.4917 6.81969Z" fill="#FFE100"/>
<path d="M4.19677 63.4755C3.56727 63.4755 3.14764 63.0559 3.14764 62.4263V2.6231C3.14764 1.9936 3.56727 1.57397 4.19677 1.57397C4.82627 1.57397 5.24589 1.9936 5.24589 2.6231V62.4263C5.24589 63.0559 4.82627 63.4755 4.19677 63.4755Z" fill="#FFE100"/>
<path d="M62.9509 62.4264H2.09838C1.46888 62.4264 1.04926 62.0068 1.04926 61.3773C1.04926 60.7478 1.46888 60.3281 2.09838 60.3281H62.9509C63.5804 60.3281 64 60.7478 64 61.3773C64 62.0066 63.5804 62.4264 62.9509 62.4264Z" fill="#FFE100"/>
<path d="M37.7705 56.1311C35.882 56.1311 34.2033 55.3968 32.7344 53.8229C25.495 46.4786 26.2295 22.4524 26.2295 21.5081C26.2295 19.1999 24.341 17.3114 22.0328 17.3114C21.4033 17.3114 20.9836 16.8918 20.9836 16.2623C20.9836 15.6328 21.4033 15.2131 22.0328 15.2131C25.495 15.2131 28.3279 18.0459 28.3279 21.5083C28.3279 21.823 27.6984 45.6394 34.2033 52.3541C35.2524 53.4033 36.4065 54.0329 37.7705 54.0329C39.1345 54.0329 40.2885 53.5083 41.3378 52.3541C47.8426 45.6394 47.2131 21.823 47.2131 21.5083C47.2131 18.046 50.0459 15.2131 53.5083 15.2131C54.1378 15.2131 54.5574 15.6328 54.5574 16.2623C54.5574 16.8918 54.1378 17.3114 53.5083 17.3114C51.2 17.3114 49.3115 19.1999 49.3115 21.5081C49.3115 22.4524 50.0459 46.4786 42.8066 53.8229C41.3378 55.3968 39.659 56.1311 37.7705 56.1311Z" fill="#FFE100"/>
<path d="M57.7049 32.0001H20.9836C20.3541 32.0001 19.9345 31.5805 19.9345 30.951C19.9345 30.3215 20.3541 29.9019 20.9836 29.9019H57.7049C58.3344 29.9019 58.754 30.3215 58.754 30.951C58.7541 31.5805 58.3344 32.0001 57.7049 32.0001Z" fill="#FFE100"/>
<path d="M58.7541 22.5575C58.1246 22.5575 57.705 22.1379 57.705 21.5084C57.705 19.2001 55.8165 17.3116 53.5082 17.3116C52.8787 17.3116 52.4591 16.892 52.4591 16.2625C52.4591 15.633 52.8787 15.2134 53.5082 15.2134C56.9705 15.2134 59.8034 18.0461 59.8034 21.5085C59.8032 22.1379 59.3836 22.5575 58.7541 22.5575Z" fill="#FFE100"/>
<path d="M16.7869 22.5574C16.1574 22.5574 15.7377 22.1378 15.7377 21.5083C15.7377 18.046 18.5705 15.2131 22.0329 15.2131C22.6624 15.2131 23.082 15.6328 23.082 16.2623C23.082 16.8918 22.6624 17.3114 22.0329 17.3114C19.7246 17.3114 17.8361 19.1999 17.8361 21.5081C17.8361 22.1378 17.4164 22.5574 16.7869 22.5574Z" fill="#FFE100"/>
<path d="M57.7049 32C57.3901 32 57.1803 31.8951 56.9705 31.6852L53.823 28.5377C53.4034 28.1181 53.4034 27.4886 53.823 27.0689C54.2426 26.6492 54.8721 26.6492 55.2919 27.0689L58.4394 30.2164C58.859 30.636 58.859 31.2655 58.4394 31.6852C58.2295 31.8951 58.0196 32 57.7049 32Z" fill="#FFE100"/>
<path d="M54.5574 35.1477C54.2426 35.1477 54.0328 35.0428 53.823 34.8329C53.4034 34.4133 53.4034 33.7838 53.823 33.3641L56.9705 30.2166C57.3901 29.7969 58.0196 29.7969 58.4394 30.2166C58.8591 30.6362 58.859 31.2657 58.4394 31.6854L55.2919 34.8329C55.082 35.0428 54.8721 35.1477 54.5574 35.1477Z" fill="#FFE100"/>
<path d="M3.14751 63.4754C2.51801 63.4754 2.09839 63.0558 2.09839 62.4263V1.57378C2.09839 0.944283 2.51801 0.524658 3.14751 0.524658C3.77701 0.524658 4.19664 0.944283 4.19664 1.57378V62.4263C4.19676 63.0558 3.77701 63.4754 3.14751 63.4754Z" fill="black"/>
<path d="M61.9016 61.3771H1.04912C0.419625 61.3771 0 60.9574 0 60.3279C0 59.6984 0.419625 59.2788 1.04912 59.2788H61.9016C62.5311 59.2788 62.9507 59.6984 62.9507 60.3279C62.9507 60.9574 62.5311 61.3771 61.9016 61.3771Z" fill="black"/>
<path d="M9.44261 30.9508H7.34423C6.71473 30.9508 6.2951 30.5312 6.2951 29.9017C6.2951 29.2722 6.71473 28.8525 7.34423 28.8525H9.44261C10.0721 28.8525 10.4917 29.2722 10.4917 29.9017C10.4917 30.5312 10.0721 30.9508 9.44261 30.9508Z" fill="black"/>
<path d="M9.44261 26.7543H7.34423C6.71473 26.7543 6.2951 26.3346 6.2951 25.7051C6.2951 25.0756 6.71473 24.656 7.34423 24.656H9.44261C10.0721 24.656 10.4917 25.0756 10.4917 25.7051C10.4917 26.3345 10.0721 26.7543 9.44261 26.7543Z" fill="black"/>
<path d="M9.44261 22.5575H7.34423C6.71473 22.5575 6.2951 22.1379 6.2951 21.5084C6.2951 20.8789 6.71473 20.4592 7.34423 20.4592H9.44261C10.0721 20.4592 10.4917 20.8789 10.4917 21.5084C10.4917 22.1379 10.0721 22.5575 9.44261 22.5575Z" fill="black"/>
<path d="M9.44261 18.3607H7.34423C6.71473 18.3607 6.2951 17.9411 6.2951 17.3116C6.2951 16.6821 6.71473 16.2625 7.34423 16.2625H9.44261C10.0721 16.2625 10.4917 16.6821 10.4917 17.3116C10.4917 17.9411 10.0721 18.3607 9.44261 18.3607Z" fill="black"/>
<path d="M9.44261 14.1639H7.34423C6.71473 14.1639 6.2951 13.7443 6.2951 13.1148C6.2951 12.4853 6.71473 12.0657 7.34423 12.0657H9.44261C10.0721 12.0657 10.4917 12.4853 10.4917 13.1148C10.4917 13.7443 10.0721 14.1639 9.44261 14.1639Z" fill="black"/>
<path d="M9.44261 9.96739H7.34423C6.71473 9.96739 6.2951 9.54777 6.2951 8.91827C6.2951 8.28877 6.71473 7.86914 7.34423 7.86914H9.44261C10.0721 7.86914 10.4917 8.28877 10.4917 8.91827C10.4917 9.54777 10.0721 9.96739 9.44261 9.96739Z" fill="black"/>
<path d="M9.44261 5.77061H7.34423C6.71473 5.77061 6.2951 5.35099 6.2951 4.72149C6.2951 4.09199 6.71473 3.67236 7.34423 3.67236H9.44261C10.0721 3.67236 10.4917 4.09199 10.4917 4.72149C10.4917 5.35099 10.0721 5.77061 9.44261 5.77061Z" fill="black"/>
<path d="M36.7213 55.0821C34.8328 55.0821 33.154 54.3477 31.6851 52.7738C24.4458 45.4296 25.1803 21.4033 25.1803 20.4591C25.1803 18.1508 23.2918 16.2623 20.9835 16.2623C20.354 16.2623 19.9344 15.8427 19.9344 15.2132C19.9344 14.5837 20.354 14.1641 20.9835 14.1641C24.4458 14.1641 27.2786 16.9968 27.2786 20.4592C27.2786 20.7739 26.6491 44.5903 33.154 51.3051C34.2031 52.3542 35.3573 52.9838 36.7213 52.9838C38.0853 52.9838 39.2393 52.4592 40.2885 51.3051C46.7934 44.5903 46.1639 20.7739 46.1639 20.4592C46.1639 16.9969 48.9966 14.1641 52.459 14.1641C53.0885 14.1641 53.5081 14.5837 53.5081 15.2132C53.5081 15.8427 53.0885 16.2623 52.459 16.2623C50.1508 16.2623 48.2623 18.1508 48.2623 20.4591C48.2623 21.4033 48.9966 45.4296 41.7574 52.7738C40.2885 54.3476 38.6099 55.0821 36.7213 55.0821Z" fill="black"/>
<path d="M56.6558 30.9508H19.9345C19.305 30.9508 18.8854 30.5312 18.8854 29.9017C18.8854 29.2722 19.305 28.8525 19.9345 28.8525H56.6558C57.2853 28.8525 57.7049 29.2722 57.7049 29.9017C57.7049 30.5312 57.2853 30.9508 56.6558 30.9508Z" fill="black"/>
<path d="M57.7049 21.5082C57.0754 21.5082 56.6558 21.0886 56.6558 20.4591C56.6558 18.1508 54.7673 16.2623 52.459 16.2623C51.8295 16.2623 51.4099 15.8427 51.4099 15.2132C51.4099 14.5837 51.8295 14.1641 52.459 14.1641C55.9213 14.1641 58.7542 16.9968 58.7542 20.4592C58.7542 21.0884 58.3344 21.5082 57.7049 21.5082Z" fill="black"/>
<path d="M15.7377 21.5083C15.1082 21.5083 14.6886 21.0887 14.6886 20.4592C14.6886 16.9969 17.5213 14.1641 20.9837 14.1641C21.6132 14.1641 22.0328 14.5837 22.0328 15.2132C22.0328 15.8427 21.6132 16.2623 20.9837 16.2623C18.6755 16.2623 16.787 18.1508 16.787 20.4591C16.7868 21.0886 16.3672 21.5083 15.7377 21.5083Z" fill="black"/>
<path d="M56.6557 30.951C56.3409 30.951 56.1311 30.8461 55.9213 30.6362L52.7738 27.4887C52.3542 27.0691 52.3542 26.4396 52.7738 26.0198C53.1935 25.6001 53.8229 25.6002 54.2427 26.0198L57.3902 29.1673C57.8098 29.587 57.8098 30.2165 57.3902 30.6362C57.1803 30.846 56.9704 30.951 56.6557 30.951Z" fill="black"/>
<path d="M53.5082 34.0984C53.1935 34.0984 52.9836 33.9935 52.7738 33.7836C52.3542 33.364 52.3542 32.7345 52.7738 32.3148L55.9213 29.1673C56.3409 28.7476 56.9704 28.7476 57.3902 29.1673C57.8098 29.5869 57.8098 30.2164 57.3902 30.6361L54.2427 33.7836C54.0327 33.9935 53.823 34.0984 53.5082 34.0984Z" fill="black"/>
</svg>
