<svg width="51" height="46" viewBox="0 0 51 46" fill="none" xmlns="http://www.w3.org/2000/svg">
<path d="M36.0375 5.9749C36.0375 6.45063 36.2153 6.90688 36.5317 7.24328C36.8482 7.57967 37.2774 7.76865 37.725 7.76865C38.1725 7.76865 38.6018 7.57967 38.9182 7.24328C39.2347 6.90688 39.4125 6.45063 39.4125 5.9749C39.4125 5.49917 39.2347 5.04292 38.9182 4.70653C38.6018 4.37014 38.1725 4.18115 37.725 4.18115C37.2774 4.18115 36.8482 4.37014 36.5317 4.70653C36.2153 5.04292 36.0375 5.49917 36.0375 5.9749Z" fill="#2779A7"/>
<path d="M36.0375 20.0625C36.0375 20.5383 36.2153 20.9945 36.5317 21.3309C36.8482 21.6673 37.2774 21.8563 37.725 21.8563C38.1725 21.8563 38.6018 21.6673 38.9182 21.3309C39.2347 20.9945 39.4125 20.5383 39.4125 20.0625C39.4125 19.5868 39.2347 19.1306 38.9182 18.7942C38.6018 18.4578 38.1725 18.2688 37.725 18.2688C37.2774 18.2688 36.8482 18.4578 36.5317 18.7942C36.2153 19.1306 36.0375 19.5868 36.0375 20.0625Z" fill="#2779A7"/>
<path d="M41.5062 2.5H4.375C3.34375 2.5 2.5 3.34375 2.5 4.375V7.58125C2.5 8.6125 3.34375 9.45625 4.375 9.45625H41.5062C42.5375 9.45625 43.3812 8.6125 43.3812 7.58125V4.375C43.3812 3.3375 42.5375 2.5 41.5062 2.5ZM21.0187 6.6H6.05625C5.7125 6.6 5.43125 6.31875 5.43125 5.975C5.43125 5.63125 5.7125 5.35 6.05625 5.35H21.0187C21.3625 5.35 21.6437 5.63125 21.6437 5.975C21.6437 6.31875 21.3625 6.6 21.0187 6.6ZM37.725 7.775C36.7937 7.775 36.0375 6.96875 36.0375 5.98125C36.0375 4.99375 36.7937 4.1875 37.725 4.1875C38.6562 4.1875 39.4125 4.99375 39.4125 5.98125C39.4125 6.96875 38.6562 7.775 37.725 7.775ZM43.3812 18.4563C43.3812 17.425 42.5375 16.5813 41.5062 16.5813H4.375C3.34375 16.5813 2.5 17.425 2.5 18.4563V21.6688C2.5 22.7 3.34375 23.5438 4.375 23.5438H29.0438L31.0875 22.2938C31.4562 22.0688 31.8812 21.9438 32.3187 21.9375H32.3625C32.7625 21.9375 33.1687 22.0375 33.525 22.2188C33.9062 22.4125 34.2313 22.7 34.4688 23.05L34.8062 23.5438H37.8563L38.125 23.0187C38.275 22.725 38.4812 22.4688 38.7437 22.2625C38.9875 22.0625 39.2687 21.9187 39.575 21.8312C39.8 21.7625 40.0375 21.7313 40.2687 21.7313C40.6688 21.7313 41.0687 21.8313 41.425 22.0125L42.9875 22.8125C43.2313 22.4937 43.375 22.1 43.375 21.6688V18.4563H43.3812ZM37.725 21.8563C36.7937 21.8563 36.0375 21.05 36.0375 20.0625C36.0375 19.075 36.7937 18.2688 37.725 18.2688C38.6562 18.2688 39.4125 19.075 39.4125 20.0625C39.4125 21.05 38.6562 21.8563 37.725 21.8563Z" fill="white"/>
<path d="M41.5062 0H4.375C1.9625 0 0 1.9625 0 4.375V7.58125C0 9.99375 1.9625 11.9563 4.375 11.9563H41.5062C43.9187 11.9563 45.8812 9.99375 45.8812 7.58125V4.375C45.8812 1.9625 43.9187 0 41.5062 0ZM43.3812 7.58125C43.3812 8.6125 42.5375 9.45625 41.5062 9.45625H4.375C3.34375 9.45625 2.5 8.6125 2.5 7.58125V4.375C2.5 3.34375 3.34375 2.5 4.375 2.5H41.5062C42.5375 2.5 43.3812 3.34375 43.3812 4.375V7.58125Z" fill="#2779A7"/>
<path d="M21.0188 5.3501H6.05627C5.71252 5.3501 5.43127 5.63135 5.43127 5.9751C5.43127 6.31885 5.71252 6.6001 6.05627 6.6001H21.0188C21.3625 6.6001 21.6438 6.31885 21.6438 5.9751C21.6438 5.63135 21.3625 5.3501 21.0188 5.3501Z" fill="#2779A7"/>
<path d="M24.6437 36.9249C24.3937 36.5624 24.2438 36.15 24.2125 35.7125L23.9938 32.7562C23.9438 32.1062 24.1563 31.4875 24.5875 31.0125C24.7063 30.8812 24.8312 30.7687 24.9688 30.6687H4.375C3.34375 30.6687 2.5 31.5125 2.5 32.5437V35.75C2.5 36.7812 3.34375 37.625 4.375 37.625H25.3812C25.0875 37.4437 24.8375 37.2062 24.6437 36.9249Z" fill="#E6E6E6"/>
<path d="M28.725 38.8751C28.5312 38.5876 28.3562 38.2876 28.1937 37.9813L26.7938 38.0188H26.7313C26.3313 38.0188 25.9313 37.9251 25.575 37.7376C25.5063 37.7063 25.4437 37.6688 25.3812 37.6251H4.375C3.34375 37.6251 2.5 36.7813 2.5 35.7501V32.5438C2.5 31.5126 3.34375 30.6688 4.375 30.6688H24.9688C25.0875 30.5813 25.2188 30.5063 25.3563 30.4438C25.6562 30.3063 25.9812 30.2313 26.3187 30.2251L27.65 30.1876C27.675 30.1188 27.7 30.0563 27.725 29.9876C27.8312 29.7251 27.9438 29.4626 28.075 29.2188C28.2313 28.9126 28.4125 28.6063 28.6125 28.3063L28.5187 28.1626H4.375C1.9625 28.1626 0 30.1251 0 32.5376V35.7438C0 38.1563 1.9625 40.1188 4.375 40.1188H29.3563L29.4813 39.8751C29.2063 39.5626 28.9562 39.2251 28.725 38.8751Z" fill="#2779A7"/>
<path d="M41.2312 32.5813C41.0312 32.0188 40.7312 31.5063 40.3312 31.0563C40.2062 30.9188 40.0812 30.7938 39.9437 30.6688C39.6437 30.4063 39.3125 30.1751 38.95 29.9876C38.425 29.7188 37.8625 29.5501 37.2812 29.4876C36.6812 29.4251 36.0875 29.4751 35.5125 29.6438C35.2187 29.7313 34.9437 29.8438 34.6812 29.9876C34.4375 30.1188 34.2 30.2751 33.9875 30.4563C33.9062 30.5251 33.8312 30.5938 33.7562 30.6688C33.4375 30.9813 33.175 31.3376 32.9687 31.7313C32.7187 32.2251 32.5687 32.7501 32.5312 33.3063C32.4875 33.8813 32.5687 34.4563 32.7625 35.0188C32.9625 35.5813 33.2625 36.0938 33.6625 36.5438C34.05 36.9813 34.5187 37.3376 35.0437 37.6063C35.0562 37.6126 35.0687 37.6188 35.0875 37.6251C35.6062 37.8813 36.15 38.0438 36.7187 38.1063C37.3187 38.1688 37.9125 38.1188 38.4875 37.9501C38.7687 37.8688 39.0312 37.7626 39.2812 37.6313C39.5437 37.4938 39.7875 37.3313 40.0125 37.1438C40.4375 36.7876 40.7812 36.3626 41.0312 35.8688C41.2812 35.3751 41.4312 34.8501 41.4687 34.2938C41.5062 33.7188 41.4312 33.1438 41.2312 32.5813Z" fill="white"/>
<path d="M47.8938 32.1312C47.8875 32.0062 47.7938 31.8875 47.6688 31.8187C47.6063 31.7875 47.5375 31.7687 47.4688 31.7687L45.8188 31.8125L44.6688 31.8437L44.625 31.7374L44.3875 31.1937C44.2875 30.9562 44.175 30.7312 44.05 30.5062C43.6875 29.8562 43.2375 29.2562 42.7063 28.7187L42.2188 28.225L42.1688 28.1749L43.425 25.7312C43.45 25.6875 43.4563 25.6375 43.45 25.5875C43.4375 25.475 43.35 25.3562 43.225 25.2875L40.475 23.875C40.4125 23.8437 40.3438 23.825 40.275 23.825C40.15 23.825 40.0438 23.8812 40 23.9687L38.9375 26.0375L38.7375 26.4187L37.9875 26.2999C37.5563 26.2312 37.1188 26.2 36.6875 26.2C36.1188 26.2 35.5438 26.2625 34.9938 26.3812L34.3 26.5312L33.9688 26.0437L32.7313 24.2312C32.6875 24.1687 32.6313 24.1187 32.5688 24.0875C32.5063 24.0562 32.4313 24.0375 32.3625 24.0375C32.2938 24.0375 32.2313 24.0562 32.1813 24.0875L29.65 25.6375C29.5875 25.675 29.55 25.725 29.5375 25.7937C29.5188 25.875 29.5375 25.9562 29.5938 26.0375L29.6063 26.0499L31.0563 28.1749L31.2 28.3875L30.7188 28.9937C30.4625 29.3187 30.2375 29.6562 30.0438 30C30.0063 30.0625 29.975 30.125 29.9438 30.1875C29.8625 30.3437 29.7875 30.5125 29.7188 30.6812C29.6063 30.95 29.5125 31.225 29.4313 31.5125L29.225 32.2562L26.3813 32.3312C26.2875 32.3312 26.2063 32.3687 26.15 32.4249C26.1063 32.4749 26.0875 32.5375 26.0875 32.6062L26.3063 35.5625C26.3125 35.6875 26.4063 35.8062 26.5313 35.875C26.5938 35.9062 26.6625 35.9249 26.7313 35.9249L29.525 35.85L29.8063 36.5C29.975 36.8937 30.1813 37.2687 30.4125 37.6312C30.7 38.075 31.0313 38.4937 31.4 38.8812C31.4313 38.9125 31.4625 38.9437 31.4875 38.975L32.025 39.5125L31.7063 40.1312L30.7688 41.9625C30.725 42.05 30.7438 42.1375 30.7625 42.1875C30.8 42.2812 30.8688 42.3562 30.9688 42.4062L33.7188 43.8187C33.7813 43.85 33.85 43.8687 33.9188 43.8687C34.0438 43.8687 34.15 43.8125 34.1938 43.725L35.45 41.275L36.2 41.3937C36.6313 41.4625 37.0688 41.4937 37.5 41.4937C38.0688 41.4937 38.6438 41.4312 39.1938 41.3125L39.8875 41.1625L41.4563 43.4625C41.5 43.525 41.5563 43.575 41.6188 43.6062C41.6813 43.6375 41.7563 43.6562 41.825 43.6562C41.8938 43.6562 41.9563 43.6375 42.0063 43.6062L44.5375 42.0562C44.6 42.0187 44.6375 41.9687 44.65 41.9C44.6688 41.8 44.6313 41.7125 44.5938 41.6562L43.2875 39.7374L42.9938 39.2999L43.4438 38.7374L43.475 38.7C43.7813 38.3187 44.0375 37.9187 44.25 37.5062C44.3938 37.2312 44.5188 36.9312 44.625 36.625C44.675 36.4812 44.725 36.3312 44.7625 36.1812L44.975 35.4375L45.875 35.4125L47.8188 35.3624C47.9125 35.3624 47.9938 35.3249 48.05 35.2687C48.0938 35.2187 48.1125 35.1562 48.1125 35.0875L47.8938 32.1312ZM34.4438 38.775C33.8563 38.475 33.3313 38.0875 32.8813 37.625C32.8125 37.5562 32.75 37.4875 32.6813 37.4125C32.1625 36.8312 31.775 36.1687 31.5188 35.4437C31.2625 34.7125 31.1625 33.9625 31.2125 33.2062C31.2625 32.4749 31.4563 31.775 31.7938 31.125C31.875 30.9625 31.9625 30.8125 32.0625 30.6625C32.2188 30.425 32.3938 30.1937 32.5813 29.9812C32.7563 29.7875 32.9438 29.6062 33.1438 29.4437C33.725 28.9625 34.3938 28.6062 35.1375 28.3875C35.5438 28.2687 35.9563 28.1937 36.375 28.1625C36.65 28.1437 36.925 28.1437 37.2063 28.1625L37.4125 28.1812C38.1563 28.2625 38.875 28.475 39.5438 28.8187C40.1375 29.125 40.6688 29.5124 41.125 29.9874C41.1875 30.0499 41.2438 30.1125 41.3063 30.1812C41.45 30.3437 41.5813 30.5062 41.7063 30.6812C42.0313 31.1312 42.2875 31.625 42.4688 32.15C42.725 32.8812 42.825 33.6312 42.775 34.3875C42.725 35.1187 42.5313 35.8187 42.1938 36.4687C41.975 36.8937 41.7063 37.2812 41.3875 37.6312C41.2188 37.8187 41.0375 37.9875 40.8438 38.15C40.4938 38.4375 40.1125 38.6812 39.7063 38.8812C39.4313 39.0125 39.15 39.125 38.85 39.2125C38.1125 39.4312 37.3438 39.5 36.575 39.4187C35.9063 39.35 35.2625 39.1687 34.6563 38.8812C34.5875 38.8437 34.5188 38.8125 34.4438 38.775Z" fill="white"/>
<path d="M50.2062 34.9312L49.9875 31.9749C49.9562 31.5437 49.8062 31.1249 49.5562 30.7624C49.3187 30.4187 48.9938 30.1374 48.625 29.9499C48.2687 29.7687 47.8688 29.6687 47.4688 29.6687H47.4062L46.0062 29.7062C45.65 29.0311 45.2188 28.3937 44.7188 27.8062L45.2938 26.6874C45.4438 26.3937 45.5312 26.0749 45.55 25.7437C45.5687 25.4312 45.5187 25.1187 45.4125 24.8187C45.3312 24.5937 45.2188 24.3812 45.0812 24.1874C45.5875 23.4749 45.8812 22.6062 45.8812 21.6687V18.4624C45.8812 16.0499 43.9187 14.0874 41.5062 14.0874H4.375C1.9625 14.0874 0 16.0499 0 18.4624V21.6687C0 24.0812 1.9625 26.0437 4.375 26.0437H27.4437C27.45 26.1312 27.4625 26.2124 27.4813 26.2999C27.5438 26.6249 27.675 26.9312 27.8625 27.2062L28.5187 28.1687L28.6125 28.3124C28.4125 28.6124 28.2313 28.9124 28.075 29.2249C27.95 29.4687 27.8312 29.7312 27.725 29.9937C27.7 30.0624 27.675 30.1249 27.65 30.1937L26.3187 30.2312C25.9812 30.2374 25.6562 30.3124 25.3563 30.4499C25.2188 30.5124 25.0875 30.5874 24.9688 30.6749C24.8312 30.7749 24.7 30.8874 24.5875 31.0187C24.1563 31.4999 23.9438 32.1187 23.9938 32.7624L24.2125 35.7187C24.2438 36.1499 24.3937 36.5687 24.6437 36.9312C24.8375 37.2124 25.0937 37.4499 25.3812 37.6374C25.4437 37.6749 25.5063 37.7124 25.575 37.7499C25.9313 37.9312 26.3313 38.0312 26.7313 38.0312H26.7938L28.1937 37.9937C28.3562 38.2999 28.5312 38.5999 28.725 38.8874C28.9562 39.2374 29.2063 39.5686 29.4813 39.8937L29.3563 40.1374L28.9062 41.0124C28.7563 41.3062 28.6687 41.6249 28.65 41.9562C28.6312 42.2687 28.6812 42.5812 28.7875 42.8812C29 43.4874 29.4375 43.9812 30.0187 44.2812L32.7687 45.6937C33.1312 45.8749 33.5312 45.9749 33.925 45.9749C34.1625 45.9749 34.3937 45.9437 34.6187 45.8749C34.925 45.7874 35.2062 45.6374 35.45 45.4437C35.7062 45.2374 35.9187 44.9812 36.0687 44.6874L36.6437 43.5687C36.9312 43.5937 37.2188 43.6062 37.5062 43.6062C37.9875 43.6062 38.4625 43.5749 38.9375 43.5062L39.725 44.6624C39.9625 45.0124 40.2875 45.2999 40.6688 45.4937C41.025 45.6749 41.4312 45.7749 41.8312 45.7749H41.875C42.3125 45.7687 42.7375 45.6437 43.1063 45.4187L45.6375 43.8687C46.1938 43.5312 46.5687 42.9937 46.7062 42.3624C46.775 42.0499 46.775 41.7249 46.7125 41.4062C46.65 41.0812 46.5187 40.7749 46.3312 40.4999L45.5812 39.3999C45.7812 39.0999 45.9625 38.7999 46.1187 38.4874C46.275 38.1812 46.4188 37.8561 46.5438 37.5187L47.875 37.4812C48.2125 37.4749 48.5375 37.3999 48.8375 37.2624C49.1312 37.1249 49.3937 36.9374 49.6063 36.6999C50.0438 36.1999 50.2562 35.5812 50.2062 34.9312ZM2.5 21.6687V18.4624C2.5 17.4312 3.34375 16.5874 4.375 16.5874H41.5062C42.5375 16.5874 43.3812 17.4312 43.3812 18.4624V21.6687C43.3812 22.0999 43.2375 22.4937 42.9937 22.8124L41.4312 22.0124C41.0687 21.8312 40.6687 21.7312 40.275 21.7312C40.0375 21.7312 39.8062 21.7624 39.5812 21.8312C39.275 21.9187 38.9938 22.0687 38.75 22.2624C38.4938 22.4687 38.2812 22.7249 38.1312 23.0187L37.8625 23.5437H34.8125L34.475 23.0499C34.2375 22.6999 33.9125 22.4124 33.5312 22.2187C33.1688 22.0374 32.7687 21.9374 32.3687 21.9374H32.325C31.8875 21.9437 31.4625 22.0687 31.0938 22.2937L29.05 23.5437H4.375C3.34375 23.5437 2.5 22.6999 2.5 21.6687ZM48.0562 35.2749C48 35.3374 47.925 35.3687 47.825 35.3687L45.8812 35.4187L44.9813 35.4437L44.7687 36.1874C44.725 36.3374 44.6812 36.4874 44.6312 36.6312C44.525 36.9374 44.4 37.2374 44.2562 37.5124C44.05 37.9187 43.7875 38.3186 43.4813 38.7062L43.45 38.7437L43 39.3062L43.2938 39.7437L44.6 41.6624C44.6375 41.7187 44.675 41.8062 44.6562 41.9062C44.6437 41.9687 44.6 42.0249 44.5438 42.0624L42.0125 43.6062C41.9625 43.6374 41.9 43.6562 41.8312 43.6562C41.7625 43.6562 41.6937 43.6374 41.625 43.6062C41.5563 43.5749 41.5 43.5249 41.4625 43.4624L39.8937 41.1624L39.2 41.3124C38.6437 41.4312 38.075 41.4937 37.5062 41.4937C37.075 41.4937 36.6375 41.4562 36.2062 41.3937L35.4562 41.2749L34.2 43.7249C34.1562 43.8124 34.05 43.8687 33.925 43.8687C33.8563 43.8687 33.7875 43.8499 33.725 43.8187L30.975 42.4062C30.875 42.3562 30.8062 42.2749 30.7687 42.1874C30.75 42.1437 30.7312 42.0499 30.775 41.9624L31.7125 40.1312L32.0312 39.5124L31.4937 38.9749C31.4625 38.9437 31.4312 38.9124 31.4062 38.8812C31.0312 38.4937 30.7 38.0749 30.4188 37.6312C30.1875 37.2687 29.9813 36.8937 29.8125 36.4999L29.5312 35.8499L26.7375 35.9249C26.6687 35.9249 26.6 35.9062 26.5375 35.8749C26.4062 35.8062 26.3188 35.6874 26.3125 35.5624L26.0938 32.6062C26.0875 32.5374 26.1063 32.4749 26.1562 32.4249C26.2125 32.3624 26.2875 32.3312 26.3875 32.3312L29.2313 32.2562L29.4375 31.5124C29.5187 31.2249 29.6125 30.9437 29.725 30.6812C29.7937 30.5124 29.8688 30.3499 29.95 30.1874C29.9813 30.1249 30.0187 30.0624 30.05 29.9999C30.2375 29.6562 30.4687 29.3187 30.725 28.9937L31.2062 28.3874L31.0625 28.1749L29.6125 26.0499L29.6 26.0374C29.5437 25.9562 29.525 25.8749 29.5438 25.7937C29.5563 25.7312 29.6 25.6749 29.6562 25.6374L32.1875 24.0874C32.2375 24.0562 32.3 24.0374 32.3687 24.0374C32.4375 24.0374 32.5063 24.0562 32.575 24.0874C32.6437 24.1187 32.7 24.1687 32.7375 24.2312L33.975 26.0437L34.3062 26.5312L35 26.3812C35.5563 26.2624 36.125 26.1999 36.6937 26.1999C37.125 26.1999 37.5625 26.2374 37.9937 26.2999L38.7437 26.4187L38.9375 26.0374L40 23.9687C40.0438 23.8812 40.15 23.8249 40.275 23.8249C40.3437 23.8249 40.4125 23.8437 40.475 23.8749L43.225 25.2874C43.35 25.3499 43.4375 25.4687 43.45 25.5874C43.4562 25.6374 43.45 25.6874 43.425 25.7312L42.1688 28.1812L42.2188 28.2312L42.7062 28.7249C43.2437 29.2687 43.6937 29.8624 44.05 30.5124C44.175 30.7374 44.2875 30.9624 44.3875 31.1999L44.625 31.7437L44.6688 31.8499L45.8187 31.8187L47.4688 31.7749C47.5375 31.7749 47.6063 31.7937 47.6688 31.8249C47.8 31.8937 47.8875 32.0124 47.8937 32.1374L48.1125 35.0937C48.1187 35.1624 48.1 35.2249 48.0562 35.2749Z" fill="#2779A7"/>
<path d="M36.375 28.1688H37.2062C36.925 28.1501 36.65 28.1501 36.375 28.1688Z" fill="#2779A7"/>
<path d="M42.4688 32.1501C42.2875 31.6251 42.025 31.1313 41.7063 30.6813C41.5813 30.5063 41.45 30.3438 41.3063 30.1813C41.25 30.1188 41.1875 30.0501 41.125 29.9876C40.6688 29.5188 40.1375 29.1251 39.5438 28.8188C38.875 28.4751 38.1563 28.2626 37.4125 28.1813L37.2063 28.1626H36.375C35.9563 28.1938 35.5438 28.2626 35.1375 28.3876C34.3938 28.6063 33.725 28.9626 33.1438 29.4438C32.9438 29.6126 32.7563 29.7938 32.5813 29.9813C32.3875 30.1938 32.2188 30.4188 32.0625 30.6626C31.9688 30.8126 31.875 30.9688 31.7938 31.1251C31.4625 31.7751 31.2688 32.4751 31.2125 33.2063C31.1563 33.9626 31.2625 34.7126 31.5188 35.4438C31.775 36.1688 32.1625 36.8313 32.6813 37.4126C32.7438 37.4876 32.8125 37.5563 32.8813 37.6251C33.3375 38.0876 33.8625 38.4751 34.4438 38.7751C34.5125 38.8126 34.5813 38.8438 34.6563 38.8751C35.2688 39.1563 35.9125 39.3376 36.575 39.4126C37.3438 39.4938 38.1125 39.4251 38.85 39.2063C39.15 39.1188 39.4313 39.0063 39.7063 38.8751C40.1125 38.6813 40.4938 38.4376 40.8438 38.1438C41.0375 37.9813 41.2188 37.8063 41.3875 37.6251C41.7063 37.2751 41.975 36.8876 42.1938 36.4626C42.525 35.8126 42.7188 35.1126 42.775 34.3813C42.8313 33.6313 42.725 32.8813 42.4688 32.1501ZM41.4688 34.2938C41.4313 34.8438 41.2813 35.3751 41.0313 35.8688C40.7813 36.3626 40.4375 36.7876 40.0125 37.1438C39.7875 37.3313 39.5438 37.4938 39.2813 37.6313C39.0313 37.7626 38.7688 37.8688 38.4875 37.9501C37.9125 38.1188 37.3188 38.1751 36.7188 38.1063C36.15 38.0438 35.6063 37.8813 35.0875 37.6251C35.075 37.6188 35.0625 37.6126 35.0438 37.6063C34.5188 37.3376 34.05 36.9751 33.6625 36.5438C33.2625 36.0938 32.9563 35.5813 32.7625 35.0188C32.5688 34.4563 32.4875 33.8813 32.5313 33.3063C32.5688 32.7563 32.7188 32.2251 32.9688 31.7313C33.175 31.3313 33.4375 30.9751 33.7563 30.6688C33.8313 30.5938 33.9063 30.5251 33.9875 30.4563C34.2 30.2751 34.4375 30.1188 34.6813 29.9876C34.9438 29.8501 35.2188 29.7313 35.5125 29.6438C36.0875 29.4751 36.6813 29.4188 37.2813 29.4876C37.8625 29.5501 38.425 29.7188 38.95 29.9876C39.3125 30.1751 39.6438 30.4001 39.9438 30.6688C40.0813 30.7876 40.2125 30.9188 40.3313 31.0563C40.7313 31.5063 41.0375 32.0188 41.2313 32.5813C41.4313 33.1438 41.5063 33.7188 41.4688 34.2938Z" fill="#2779A7"/>
</svg>
