<svg width="64" height="64" viewBox="0 0 64 64" fill="none" xmlns="http://www.w3.org/2000/svg">
<path d="M38.1276 56.1702C38.1276 53.914 38.1276 47.3191 38.1276 47.3191H25.8723V54.1276L28.5956 58.8936L38.1275 60.2553H42.2126C39.9565 60.2553 38.1276 58.4263 38.1276 56.1702Z" fill="#FFD159"/>
<path d="M34.0425 56.1702V54.1277H25.8722V56.1702C25.8722 58.4264 24.0434 60.2553 21.7871 60.2553H38.1275C35.8715 60.2553 34.0425 58.4263 34.0425 56.1702Z" fill="#FFE08F"/>
<path d="M58.8936 3.74463H54.8085L58.8936 41.8723H62.9787V7.82975C62.9787 5.583 61.1403 3.74463 58.8936 3.74463Z" fill="#164370"/>
<path d="M58.8936 7.82975C58.8936 5.583 57.0554 3.74463 54.8085 3.74463H5.10637C2.85962 3.74463 1.02124 5.58288 1.02124 7.82975V41.8723H58.8936V7.82975Z" fill="#276AAD"/>
<path d="M58.8936 41.8723L54.8085 50.0426H58.8936C61.1403 50.0426 62.9787 48.2043 62.9787 45.9574V41.8723H58.8936Z" fill="#FFE08F"/>
<path d="M58.8936 45.9574V41.8723H1.02124V45.9574C1.02124 48.2042 2.85949 50.0426 5.10637 50.0426H54.8085C57.0554 50.0424 58.8936 48.2042 58.8936 45.9574Z" fill="#FFF3D4"/>
<path d="M46.4682 15.6595C47.5962 15.6595 48.5107 14.745 48.5107 13.617C48.5107 12.4889 47.5962 11.5745 46.4682 11.5745C45.3401 11.5745 44.4257 12.4889 44.4257 13.617C44.4257 14.745 45.3401 15.6595 46.4682 15.6595Z" fill="white"/>
<path d="M32 23.8296C33.1281 23.8296 34.0425 22.9152 34.0425 21.7871C34.0425 20.6591 33.1281 19.7446 32 19.7446C30.872 19.7446 29.9575 20.6591 29.9575 21.7871C29.9575 22.9152 30.872 23.8296 32 23.8296Z" fill="white"/>
<path d="M32 32C33.1281 32 34.0425 31.0856 34.0425 29.9575C34.0425 28.8295 33.1281 27.915 32 27.915C30.872 27.915 29.9575 28.8295 29.9575 29.9575C29.9575 31.0856 30.872 32 32 32Z" fill="white"/>
<path d="M58.8936 2.72339H5.10638C2.29063 2.72339 0 5.01401 0 7.82976V45.9575C0 48.7733 2.29063 51.0639 5.10638 51.0639H37.1064V56.1703C37.1064 57.319 37.4878 58.38 38.1304 59.2341H25.8696C26.5123 58.3801 26.8936 57.319 26.8936 56.1703V54.1278C26.8936 53.5636 26.4364 53.1065 25.8724 53.1065C25.3084 53.1065 24.8511 53.5636 24.8511 54.1278V56.1703C24.8511 57.8596 23.4768 59.2341 21.7873 59.2341H13.6169C13.0529 59.2341 12.5956 59.6913 12.5956 60.2554C12.5956 60.8195 13.0529 61.2766 13.6169 61.2766H50.3829C50.947 61.2766 51.4041 60.8195 51.4041 60.2554C51.4041 59.6913 50.947 59.2341 50.3829 59.2341H42.2127C40.5234 59.2341 39.1489 57.8596 39.1489 56.1703V51.0639H58.8935C61.7093 51.0639 63.9999 48.7733 63.9999 45.9575V7.82976C64 5.01401 61.7094 2.72339 58.8936 2.72339ZM5.10638 4.76601H58.8936C60.583 4.76601 61.9575 6.14051 61.9575 7.82989V40.8511H2.0425V7.82976C2.0425 6.14051 3.41688 4.76601 5.10638 4.76601ZM58.8936 49.0213H5.10638C3.41688 49.0213 2.0425 47.6468 2.0425 45.9574V42.8935H61.9575V45.9574C61.9575 47.6468 60.583 49.0213 58.8936 49.0213Z" fill="black"/>
<path d="M32 46.9788C32.564 46.9788 33.0213 46.5216 33.0213 45.9575C33.0213 45.3935 32.564 44.9363 32 44.9363C31.436 44.9363 30.9788 45.3935 30.9788 45.9575C30.9788 46.5216 31.436 46.9788 32 46.9788Z" fill="black"/>
<path d="M5.10639 18.7234H11.4043C11.6751 18.7234 11.9349 18.6157 12.1264 18.4244L15.9124 14.6382H43.58C44.0016 15.8269 45.1369 16.6807 46.4681 16.6807C48.1575 16.6807 49.532 15.3062 49.532 13.6169C49.532 11.9275 48.1575 10.553 46.4681 10.553C45.1368 10.553 44.0015 11.4069 43.58 12.5955H15.4894C15.2185 12.5955 14.9588 12.7031 14.7673 12.8945L10.9813 16.6809H5.10639C4.54239 16.6809 4.08514 17.138 4.08514 17.7021C4.08514 18.2662 4.54239 18.7234 5.10639 18.7234ZM46.4681 12.5957C47.0314 12.5957 47.4894 13.0539 47.4894 13.617C47.4894 14.1801 47.0313 14.6382 46.4681 14.6382C45.905 14.6382 45.4469 14.1801 45.4469 13.617C45.4469 13.0539 45.9049 12.5957 46.4681 12.5957Z" fill="black"/>
<path d="M5.10639 26.8936H15.4894C15.7603 26.8936 16.02 26.786 16.2115 26.5946L19.9975 22.8085H29.1119C29.5335 23.9971 30.6686 24.851 32 24.851C33.6894 24.851 35.0639 23.4765 35.0639 21.7871C35.0639 20.0978 33.6894 18.7234 32 18.7234C30.6686 18.7234 29.5334 19.5773 29.1119 20.7659H19.5745C19.3036 20.7659 19.0439 20.8735 18.8524 21.0649L15.0664 24.851H5.10639C4.54239 24.851 4.08514 25.3081 4.08514 25.8723C4.08514 26.4364 4.54239 26.8936 5.10639 26.8936ZM32.0001 20.766C32.5634 20.766 33.0214 21.2241 33.0214 21.7873C33.0214 22.3504 32.5633 22.8085 32.0001 22.8085C31.4369 22.8085 30.9789 22.3504 30.9789 21.7873C30.9789 21.2241 31.4369 20.766 32.0001 20.766Z" fill="black"/>
<path d="M45.1477 29.2353C44.9561 29.0438 44.6965 28.9363 44.4255 28.9363H34.888C34.4663 27.7477 33.3311 26.8938 31.9998 26.8938C30.3103 26.8938 28.936 28.2683 28.936 29.9577C28.936 31.647 30.3103 33.0215 31.9998 33.0215C33.3312 33.0215 34.4665 32.1677 34.888 30.979H44.0025L47.7885 34.7652C47.9801 34.9567 48.2397 35.0642 48.5107 35.0642H58.8937C59.4578 35.0642 59.915 34.607 59.915 34.0429C59.915 33.4788 59.4578 33.0217 58.8937 33.0217H48.9337L45.1477 29.2353ZM31.9998 30.9788C31.4366 30.9788 30.9786 30.5207 30.9786 29.9576C30.9786 29.3944 31.4367 28.9363 31.9998 28.9363C32.5631 28.9363 33.0211 29.3944 33.0211 29.9576C33.0211 30.5207 32.563 30.9788 31.9998 30.9788Z" fill="black"/>
</svg>
