<svg width="55" height="55" viewBox="0 0 55 55" fill="none" xmlns="http://www.w3.org/2000/svg">
<path d="M48.6666 33.3333C51.9802 33.3333 54.6666 30.6469 54.6666 27.3333C54.6666 24.0197 51.9802 21.3333 48.6666 21.3333C45.353 21.3333 42.6666 24.0197 42.6666 27.3333C42.6666 30.6469 45.353 33.3333 48.6666 33.3333Z" fill="#292D32"/>
<path d="M48.6666 12C51.9802 12 54.6666 9.31371 54.6666 6C54.6666 2.68629 51.9802 0 48.6666 0C45.353 0 42.6666 2.68629 42.6666 6C42.6666 9.31371 45.353 12 48.6666 12Z" fill="#292D32"/>
<path d="M48.6666 54.6667C51.9802 54.6667 54.6666 51.9803 54.6666 48.6667C54.6666 45.3531 51.9802 42.6667 48.6666 42.6667C45.353 42.6667 42.6666 45.3531 42.6666 48.6667C42.6666 51.9803 45.353 54.6667 48.6666 54.6667Z" fill="#292D32"/>
<path d="M6 33.3333C9.31371 33.3333 12 30.6469 12 27.3333C12 24.0197 9.31371 21.3333 6 21.3333C2.68629 21.3333 0 24.0197 0 27.3333C0 30.6469 2.68629 33.3333 6 33.3333Z" fill="#292D32"/>
<path opacity="0.4" d="M46 29.3333C47.0933 29.3333 48 28.4267 48 27.3333C48 26.24 47.0933 25.3333 46 25.3333H26.6666V14C26.6666 9.78667 28.4533 8 32.6666 8H46C47.0933 8 48 7.09333 48 6C48 4.90667 47.0933 4 46 4H32.6666C26.2133 4 22.6666 7.54667 22.6666 14V25.3333H8.66663C7.57329 25.3333 6.66663 26.24 6.66663 27.3333C6.66663 28.4267 7.57329 29.3333 8.66663 29.3333H22.6666V40.6667C22.6666 47.12 26.2133 50.6667 32.6666 50.6667H46C47.0933 50.6667 48 49.76 48 48.6667C48 47.5733 47.0933 46.6667 46 46.6667H32.6666C28.4533 46.6667 26.6666 44.88 26.6666 40.6667V29.3333H46Z" fill="#292D32"/>
</svg>
