<svg width="63" height="63" viewBox="0 0 63 63" fill="none" xmlns="http://www.w3.org/2000/svg">
<path d="M49.9726 0H12.274C5.49524 0 0 5.49524 0 12.274V49.9726C0 56.7513 5.49524 62.2466 12.274 62.2466H49.9726C56.7513 62.2466 62.2466 56.7513 62.2466 49.9726V12.274C62.2466 5.49524 56.7513 0 49.9726 0Z" fill="#42C3FF" stroke="#155293"/>
<path d="M29.0411 15.178H11.3972V47.9452H29.0411V51.726H31.5616V11.3972H29.0411V15.178ZM29.0411 45.4246H13.9178V17.6986H29.0411V45.4246Z" fill="white"/>
<path d="M41.6438 15.178H39.1233V17.6985H41.6438V15.178Z" fill="#155293"/>
<path d="M36.6027 15.178H34.0822V17.6985H36.6027V15.178Z" fill="#155293"/>
<path d="M46.6849 15.178H44.1643V17.6985H46.6849V15.178Z" fill="#155293"/>
<path d="M51.726 15.178H49.2054V17.6985H51.726V15.178Z" fill="#155293"/>
<path d="M41.6438 45.4246H39.1233V47.9451H41.6438V45.4246Z" fill="#155293"/>
<path d="M36.6027 45.4246H34.0822V47.9451H36.6027V45.4246Z" fill="#155293"/>
<path d="M46.6849 45.4246H44.1643V47.9451H46.6849V45.4246Z" fill="#155293"/>
<path d="M51.726 45.4246H49.2054V47.9451H51.726V45.4246Z" fill="#155293"/>
<path d="M51.726 40.3835H49.2054V42.9041H51.726V40.3835Z" fill="#155293"/>
<path d="M51.726 35.3425H49.2054V37.8631H51.726V35.3425Z" fill="#155293"/>
<path d="M51.726 30.3013H49.2054V32.8218H51.726V30.3013Z" fill="#155293"/>
<path d="M51.726 25.2603H49.2054V27.7808H51.726V25.2603Z" fill="#155293"/>
<path d="M51.726 20.2192H49.2054V22.7398H51.726V20.2192Z" fill="#155293"/>
</svg>
