<svg width="47" height="47" viewBox="0 0 47 47" fill="none" xmlns="http://www.w3.org/2000/svg">
<path d="M14.3625 37.5062L15.2187 37.9624C16.1937 38.4749 17.2812 38.9375 18.425 39.2812L19.3438 39.5687V43.8624C19.3438 44.8937 20.0312 45.125 20.6063 45.125H25.7563C26.3313 45.125 27.0187 44.8937 27.0187 43.8624V39.5687L27.9375 39.2812C29.0812 38.9375 30.1687 38.4812 31.1437 37.9624L32 37.5062L32.6875 38.1937C33.8875 39.3937 34.6938 40.2562 35.0375 40.4812C35.325 40.7687 35.6125 40.9375 35.8937 40.9375C36.4062 40.9375 36.8688 40.5375 36.8688 40.4812L40.5312 36.8187C40.9313 36.4187 41.275 35.7312 40.5312 34.9874L37.5 31.9562L37.9562 31.1C38.4688 30.125 38.9313 29.0375 39.275 27.8937L39.5625 26.975H43.8563C44.8875 26.975 45.1188 26.2875 45.1188 25.7125V20.5625C45.1188 19.9874 44.8875 19.3 43.8563 19.3H39.5625L39.275 18.3812C38.875 17.2937 38.475 16.2062 37.9 15.2312L37.4438 14.375L38.1313 13.6875L40.4813 11.3375C40.7687 11.0499 40.9375 10.7625 40.9375 10.4812C40.9375 10.0812 40.65 9.6812 40.4813 9.5062L36.8063 5.84995C36.6938 5.73745 36.2938 5.3937 35.8312 5.3937C35.5438 5.3937 35.2563 5.5062 34.975 5.84995L31.9438 8.8812L31.0875 8.42495C30.1125 7.91245 29.025 7.44995 27.9375 7.1062L27.0187 6.87495V2.52495C27.0187 1.43745 26.1 1.26245 25.7 1.26245H20.6063C20.2063 1.26245 19.3438 1.4312 19.3438 2.52495V6.87495L18.425 7.16245C17.3375 7.5062 16.25 7.9062 15.275 8.4812L14.4187 8.93745L11.3313 5.84995C11.0437 5.56245 10.7562 5.44995 10.5312 5.44995C10.075 5.44995 9.6125 5.7937 9.5 5.9062L5.8375 9.51245C5.60625 9.79995 5.0375 10.5437 5.8375 11.3437L8.86875 14.3812L8.4125 15.2375C7.9 16.2125 7.4375 17.3 7.09375 18.3875L6.80625 19.3062H2.5125C1.48125 19.3624 1.25 20.1625 1.25 20.6812V25.775C1.25 26.1749 1.41875 27.0375 2.5125 27.0375H6.80625L7.09375 27.9562C7.4375 29.1 7.89375 30.1312 8.4125 31.1625L8.86875 32.0187L5.8375 35.0499C5.09375 35.7937 5.55 36.5375 5.8375 36.8812L9.44375 40.4874C9.55625 40.5437 10.0188 40.8875 10.4187 40.8875C10.7063 40.8875 10.9312 40.7749 11.2187 40.4874L14.3625 37.5062Z" fill="white"/>
<path d="M22.2563 35.1063H22.2063C21.9875 35.0875 21.7688 35.0625 21.55 35.0375C21.2063 34.9938 20.9688 34.6751 21.0125 34.3313C21.0563 33.9876 21.375 33.75 21.7188 33.7938C21.9125 33.8188 22.1125 33.8438 22.3063 33.8563C22.65 33.8813 22.9063 34.1876 22.8813 34.5313C22.85 34.8626 22.575 35.1063 22.2563 35.1063ZM24.7438 35.0375C24.4375 35.0375 24.1688 34.8126 24.125 34.5001C24.075 34.1563 24.3188 33.8438 24.6563 33.7938C24.85 33.7688 25.0438 33.7375 25.2375 33.7C25.575 33.6313 25.9063 33.8563 25.9688 34.1938C26.0313 34.5313 25.8125 34.8626 25.475 34.9251C25.2625 34.9688 25.0438 35.0063 24.825 35.0313C24.8063 35.0376 24.775 35.0375 24.7438 35.0375ZM19.2125 34.4313C19.1375 34.4313 19.0688 34.4188 18.9938 34.3938C18.7875 34.3188 18.5813 34.2313 18.3813 34.1438C18.0625 34.0063 17.9188 33.6376 18.0625 33.3188C18.2 33 18.5688 32.8563 18.8875 33.0001C19.0688 33.0813 19.25 33.1563 19.4375 33.225C19.7625 33.3438 19.925 33.7063 19.8063 34.0313C19.7063 34.2751 19.4688 34.4313 19.2125 34.4313ZM27.7438 34.1938C27.5063 34.1938 27.275 34.0563 27.1688 33.8188C27.0313 33.5 27.175 33.1313 27.4875 32.9938C27.6688 32.9125 27.8438 32.8313 28.0188 32.7438C28.325 32.5875 28.7 32.7126 28.8563 33.0188C29.0125 33.3251 28.8875 33.7 28.5813 33.8563C28.3875 33.9563 28.1875 34.05 27.9875 34.1375C27.9125 34.175 27.8313 34.1938 27.7438 34.1938ZM16.475 32.95C16.3438 32.95 16.2188 32.9125 16.1063 32.8313C15.9313 32.7001 15.7563 32.5626 15.5875 32.4251C15.3188 32.2063 15.2813 31.8125 15.5 31.5438C15.7188 31.275 16.1125 31.2376 16.3813 31.4563C16.5313 31.5813 16.6875 31.7063 16.85 31.8188C17.1313 32.025 17.1875 32.4125 16.9813 32.6938C16.8563 32.8626 16.6625 32.95 16.475 32.95ZM30.3938 32.5563C30.2125 32.5563 30.0375 32.4813 29.9125 32.3313C29.6938 32.0626 29.7313 31.6688 29.9938 31.45C30.1438 31.325 30.2938 31.1938 30.4375 31.0626C30.6938 30.8313 31.0875 30.8438 31.3188 31.1C31.55 31.3563 31.5375 31.75 31.2813 31.9813C31.1188 32.1313 30.9563 32.275 30.7875 32.4125C30.675 32.5126 30.5313 32.5563 30.3938 32.5563ZM14.2375 30.7813C14.05 30.7813 13.8688 30.7 13.7438 30.5438C13.6063 30.3688 13.475 30.1938 13.35 30.0125C13.15 29.7313 13.225 29.3376 13.5063 29.1438C13.7875 28.9438 14.1813 29.0188 14.375 29.3001C14.4875 29.4626 14.6063 29.6188 14.725 29.775C14.9375 30.05 14.8875 30.4375 14.6188 30.65C14.5063 30.7375 14.375 30.7813 14.2375 30.7813ZM32.5 30.2688C32.375 30.2688 32.25 30.2313 32.1438 30.1563C31.8625 29.9626 31.7875 29.5688 31.9875 29.2875C32.1 29.125 32.2063 28.9625 32.3125 28.7938C32.4938 28.5 32.8813 28.4063 33.175 28.5875C33.4688 28.7688 33.5625 29.1563 33.3813 29.45C33.2688 29.6375 33.1438 29.8188 33.0188 30.0001C32.8938 30.1751 32.7 30.2688 32.5 30.2688ZM12.675 28.0875C12.4313 28.0875 12.1938 27.9438 12.0938 27.7C12.0125 27.5 11.9313 27.2875 11.8625 27.0813C11.75 26.7563 11.925 26.4 12.25 26.2875C12.575 26.175 12.9313 26.35 13.0438 26.675C13.1063 26.8625 13.175 27.0438 13.25 27.225C13.3813 27.5438 13.225 27.9125 12.9063 28.0375C12.8375 28.0688 12.7563 28.0875 12.675 28.0875ZM33.9125 27.4876C33.8438 27.4876 33.775 27.475 33.7125 27.4563C33.3875 27.3438 33.2125 26.9875 33.325 26.6625C33.3875 26.475 33.45 26.2875 33.5 26.1C33.5938 25.7688 33.9375 25.575 34.2688 25.6688C34.6 25.7625 34.7938 26.1063 34.7 26.4376C34.6375 26.6501 34.575 26.8625 34.5063 27.0688C34.4125 27.325 34.1688 27.4876 33.9125 27.4876ZM11.9125 25.0688C11.6 25.0688 11.325 24.8313 11.2938 24.5125C11.2688 24.2938 11.25 24.075 11.2375 23.8563C11.2188 23.5125 11.4813 23.2188 11.825 23.2C12.1688 23.1813 12.4625 23.4438 12.4813 23.7875C12.4938 23.9813 12.5063 24.1813 12.5313 24.3751C12.5688 24.7188 12.325 25.0251 11.9813 25.0626C11.9563 25.0688 11.9313 25.0688 11.9125 25.0688ZM34.5063 24.4313H34.4688C34.125 24.4125 33.8625 24.1188 33.8813 23.775C33.8938 23.5813 33.9 23.3813 33.9 23.1875C33.9 22.8438 34.1813 22.5625 34.525 22.5625C34.8688 22.5625 35.15 22.8438 35.15 23.1875C35.15 23.4063 35.1438 23.6251 35.1313 23.8438C35.1125 24.1751 34.8375 24.4313 34.5063 24.4313ZM11.9938 21.9563C11.9625 21.9563 11.925 21.9563 11.8938 21.95C11.55 21.8938 11.325 21.575 11.3813 21.2313C11.4188 21.0125 11.4563 20.8 11.5063 20.5813C11.5813 20.2438 11.9125 20.0313 12.25 20.1063C12.5875 20.1813 12.8 20.5125 12.725 20.85C12.6813 21.0438 12.6438 21.2375 12.6125 21.4313C12.5563 21.7375 12.2938 21.9563 11.9938 21.9563ZM34.3625 21.9063C34.0625 21.9063 33.8 21.6875 33.75 21.3875C33.7188 21.1938 33.6813 21 33.6375 20.8063C33.5625 20.4688 33.775 20.1375 34.1063 20.0563C34.4438 19.9813 34.775 20.1938 34.8563 20.525C34.9063 20.7375 34.95 20.9563 34.9813 21.175C35.0375 21.5125 34.8063 21.8376 34.4688 21.8938C34.4313 21.9063 34.4 21.9063 34.3625 21.9063ZM12.9125 18.9813C12.825 18.9813 12.7313 18.9625 12.6438 18.9188C12.3313 18.7688 12.2 18.4 12.3438 18.0875C12.4375 17.8875 12.5375 17.6938 12.6438 17.5C12.8063 17.1938 13.1875 17.0813 13.4938 17.25C13.8 17.4125 13.9125 17.7938 13.7438 18.1C13.65 18.275 13.5625 18.45 13.475 18.625C13.375 18.85 13.15 18.9813 12.9125 18.9813ZM33.425 18.9375C33.1938 18.9375 32.9688 18.8063 32.8625 18.5813C32.7813 18.4063 32.6875 18.225 32.5938 18.0563C32.4313 17.7563 32.5375 17.375 32.8438 17.2063C33.1438 17.0438 33.525 17.15 33.6938 17.4563C33.8 17.65 33.9 17.8438 33.9938 18.0438C34.1438 18.3563 34.0125 18.7313 33.7 18.875C33.6063 18.9188 33.5188 18.9375 33.425 18.9375ZM14.6188 16.3688C14.475 16.3688 14.325 16.3188 14.2063 16.2125C13.9438 15.9875 13.9188 15.5938 14.1438 15.3313C14.2875 15.1688 14.4375 15 14.5875 14.8438C14.825 14.5938 15.225 14.5875 15.4688 14.8313C15.7188 15.0688 15.725 15.4688 15.4813 15.7125C15.3438 15.85 15.2125 16 15.0813 16.15C14.9688 16.3 14.7938 16.3688 14.6188 16.3688ZM31.7188 16.3375C31.5438 16.3375 31.375 16.2625 31.25 16.125C31.1188 15.975 30.9875 15.8313 30.85 15.6938C30.6063 15.4438 30.6125 15.05 30.8625 14.8125C31.1063 14.5688 31.5063 14.575 31.7438 14.825C31.8938 14.9813 32.05 15.1438 32.1938 15.3063C32.4188 15.5688 32.3938 15.9625 32.1375 16.1875C32.0063 16.2875 31.8625 16.3375 31.7188 16.3375ZM16.9625 14.3188C16.7563 14.3188 16.5625 14.2188 16.4375 14.0375C16.25 13.75 16.3313 13.3626 16.6188 13.1751C16.8 13.0563 16.9875 12.9376 17.1813 12.8313C17.4813 12.6563 17.8625 12.7625 18.0375 13.0563C18.2125 13.3563 18.1125 13.7375 17.8125 13.9125C17.6438 14.0125 17.475 14.1125 17.3125 14.225C17.2 14.2875 17.0813 14.3188 16.9625 14.3188ZM29.3625 14.3001C29.2438 14.3001 29.125 14.2688 29.025 14.2C28.8625 14.0938 28.6938 13.9876 28.5188 13.8938C28.2188 13.7188 28.1188 13.3375 28.2875 13.0375C28.4563 12.7375 28.8438 12.6375 29.1438 12.8063C29.3313 12.9125 29.525 13.0313 29.7063 13.15C29.9938 13.3375 30.075 13.725 29.8875 14.0125C29.7688 14.2 29.5688 14.3001 29.3625 14.3001ZM19.775 12.9876C19.5063 12.9876 19.2625 12.8188 19.1813 12.5501C19.075 12.2188 19.2625 11.8688 19.5875 11.7688C19.7938 11.7 20.0125 11.6438 20.2188 11.5875C20.5563 11.5 20.8938 11.7063 20.9813 12.0375C21.0688 12.375 20.8625 12.7126 20.5313 12.8001C20.3438 12.85 20.15 12.9 19.9625 12.9625C19.9 12.975 19.8375 12.9876 19.775 12.9876ZM26.5438 12.975C26.4813 12.975 26.4188 12.9688 26.3563 12.9438C26.1688 12.8875 25.9813 12.8313 25.7875 12.7875C25.45 12.7063 25.25 12.3625 25.3313 12.0313C25.4125 11.6938 25.7563 11.4938 26.0875 11.575C26.3 11.6313 26.5125 11.6875 26.725 11.75C27.0563 11.85 27.2375 12.2 27.1375 12.5313C27.0563 12.8 26.8125 12.975 26.5438 12.975ZM22.8438 12.4688C22.5063 12.4688 22.2313 12.2 22.2188 11.8625C22.2063 11.5188 22.4813 11.2313 22.825 11.2188C23.0438 11.2125 23.2688 11.2125 23.4813 11.2188C23.825 11.225 24.1 11.5125 24.0875 11.8625C24.0813 12.2 23.8 12.4688 23.4625 12.4688H23.4438C23.25 12.4625 23.05 12.4625 22.85 12.4688H22.8438Z" fill="#005BFF"/>
<path d="M25.7563 46.3562H20.6063C19.1063 46.3562 18.0938 45.35 18.0938 43.8438V40.4688L18.0625 40.4563C16.8875 40.1 15.7375 39.6313 14.6375 39.05L14.5687 39.0125L12.0875 41.3625C11.7563 41.6875 11.225 42.1188 10.4125 42.1188C9.73125 42.1188 9.15625 41.7625 8.88125 41.5875C8.86875 41.5813 8.8625 41.575 8.85 41.5687L8.7 41.4938L4.9125 37.7063L4.875 37.6625C3.925 36.525 3.95625 35.1438 4.95 34.1438L7.33125 31.7625L7.29375 31.6938C6.85625 30.825 6.30625 29.6562 5.9 28.2937L5.8875 28.2625H2.5125C0.7875 28.2625 0 26.9625 0 25.75V20.6625C0 19.425 0.75625 18.1313 2.4375 18.0375H5.88125L5.89375 18C6.25625 16.85 6.74375 15.6938 7.3 14.6375L7.325 14.5938L4.94375 12.2125C4.56875 11.8375 3.45 10.4688 4.85 8.7125L4.89375 8.65625L8.6125 5C8.7 4.9125 9.48125 4.18125 10.5188 4.18125C11.1125 4.18125 11.7125 4.45625 12.2063 4.95L14.6438 7.3875L14.6625 7.375C15.8125 6.7 17.075 6.2625 18.0438 5.95625L18.0875 5.94375V2.5125C18.0875 0.787501 19.3875 0 20.6 0H25.6938C26.0063 0 26.6062 0.0562508 27.175 0.418751C27.875 0.868751 28.2563 1.60625 28.2563 2.50625V5.88125L28.3 5.89375C29.4437 6.25625 30.6063 6.7375 31.6562 7.3L31.7 7.325L34.0438 4.98125C34.6562 4.275 35.35 4.11875 35.8188 4.11875C36.775 4.11875 37.4813 4.75 37.675 4.94375L41.3375 8.60625C41.7375 9.00625 42.1625 9.7 42.1625 10.4625C42.1625 11.075 41.8875 11.6563 41.3375 12.2063L38.9562 14.5875L38.9688 14.6063C39.5938 15.6688 40.0125 16.8188 40.425 17.9312L40.4562 18.0312H43.8312C45.3312 18.0312 46.3438 19.0375 46.3438 20.5438V25.6938C46.3438 27.1938 45.3375 28.2063 43.8312 28.2063H40.4562L40.4438 28.2375C40.0875 29.4125 39.6188 30.5688 39.0375 31.6625L39.0125 31.7063L41.3937 34.0875C42 34.6938 42.2812 35.4375 42.175 36.1875C42.1 36.7313 41.8312 37.25 41.3937 37.6875L37.8125 41.2875C37.3688 41.85 36.5312 42.175 35.8875 42.175C35.3063 42.175 34.75 41.925 34.225 41.4313C33.9 41.1875 33.4938 40.775 32.6938 39.9688C32.425 39.7 32.125 39.3937 31.8 39.0625L31.7687 39.0312L31.725 39.0563C30.625 39.6375 29.475 40.1125 28.3 40.4625L28.2687 40.475V43.85C28.2687 45.35 27.2563 46.3562 25.7563 46.3562ZM20.5938 43.8562H25.7563V38.6312L27.5625 38.0687C28.5875 37.7625 29.5875 37.35 30.5438 36.8438L32.2188 35.95L33.5625 37.2937C33.9 37.6312 34.2 37.9375 34.4688 38.2125C35 38.7563 35.5563 39.3125 35.7188 39.4313L35.825 39.5L35.9062 39.5875L35.9375 39.6188L39.6313 35.925C39.6438 35.9125 39.65 35.9 39.6625 35.8938C39.6563 35.8813 39.6438 35.875 39.6313 35.8625L35.9438 32.175L36.8375 30.5C37.3438 29.55 37.75 28.5437 38.0625 27.525L38.0688 27.5125L38.6313 25.7188H43.8563V20.5625V20.5562H38.6313L38.0812 18.7938C37.6937 17.7375 37.325 16.7437 36.8125 15.875L36.7875 15.8313L35.8937 14.1562L39.5812 10.4688L39.6125 10.4375C39.6 10.425 39.5938 10.4125 39.5812 10.4L35.9188 6.7375C35.9062 6.73125 35.9 6.71875 35.8813 6.70625L32.1688 10.4062L30.4938 9.5125C29.5875 9.03125 28.5812 8.6125 27.5938 8.29375L25.7687 7.8375V2.5125V2.50625C25.7437 2.5 25.725 2.5 25.7 2.5H20.6063H20.6V7.775L18.8063 8.3375C17.9563 8.60625 16.8563 8.9875 15.9187 9.5375L15.875 9.5625L14.2 10.4563L10.4687 6.725C10.4312 6.74375 10.4 6.76875 10.375 6.7875L6.78125 10.325C6.75 10.3625 6.73125 10.3938 6.7125 10.4188L6.73125 10.4375L10.4187 14.125L9.525 15.8C9.0375 16.7188 8.6125 17.7313 8.3 18.7375L7.74375 20.525H2.575C2.5625 20.525 2.55 20.5312 2.5375 20.5312C2.53125 20.5625 2.525 20.6 2.525 20.65V25.75H7.74375L8.30625 27.5562C8.58125 28.4688 8.9625 29.3938 9.5375 30.55L10.425 32.2125L6.7375 35.9L6.71875 35.9187C6.73125 35.9437 6.75 35.975 6.78125 36.0125L10.2312 39.4625C10.2688 39.4813 10.3187 39.5187 10.375 39.5437L14.175 35.95L15.825 36.8313C16.775 37.3375 17.7812 37.7438 18.8 38.0563L18.8125 38.0625L20.6063 38.625V43.85C20.5938 43.85 20.5938 43.8562 20.5938 43.8562ZM10.3812 6.775L10.3688 6.7875C10.375 6.78125 10.3812 6.78125 10.3812 6.775Z" fill="#005BFF"/>
<path d="M32.2 29.3562L31.5125 28.7187L31.7375 28.2937C33.4187 25.1187 32.8062 21.1312 30.25 18.6C28.15 16.5187 25.1187 15.7437 22.3125 16.5062L27.2375 21.3812C28.3687 22.5 28.375 24.3312 27.2562 25.4625L25.5062 27.2312C24.9625 27.7812 24.2437 28.0812 23.4687 28.0875H23.4562C22.6937 28.0875 21.9687 27.7937 21.425 27.25L16.5 22.375C15.7687 25.1875 16.575 28.2125 18.675 30.2937C21.2312 32.825 25.225 33.3937 28.3812 31.6812L28.8062 31.45L40.1875 43.5C40.5375 43.875 41.0125 44.0812 41.525 44.0875C42.0375 44.0937 42.5187 43.8937 42.875 43.5312L43.7375 42.6625C44.1 42.3 44.2875 41.8187 44.2812 41.3062C44.2687 40.7937 44.0562 40.3187 43.6812 39.975L32.4312 29.5625L32.2 29.3562Z" fill="#E6E6E6"/>
<path d="M33.0562 28.4437C33.825 26.7812 34.1062 24.8937 33.8375 23.075C34.1062 24.9 33.825 26.7875 33.0562 28.4437ZM45.4125 40.5062C45.4375 40.6062 45.4625 40.7062 45.4812 40.8125C45.4625 40.7062 45.4437 40.6062 45.4125 40.5062Z" fill="#005BFF"/>
<path d="M45.4813 40.8126C45.4625 40.7126 45.4375 40.6064 45.4125 40.5064C45.3938 40.4376 45.375 40.3689 45.35 40.3001C45.1813 39.8314 44.9063 39.4064 44.5313 39.0564L33.2813 28.6439L33.0625 28.4439C33.8313 26.7814 34.1125 24.8939 33.8438 23.0751C33.5438 21.0251 32.6063 19.1751 31.1313 17.7126C28.4375 15.0501 24.4313 14.2439 20.9188 15.6626L20.0375 16.0189L26.3563 22.2689C26.6688 22.5751 26.8375 22.9876 26.8438 23.4251C26.8438 23.8626 26.675 24.2751 26.3688 24.5814L24.6188 26.3501C24.3125 26.6626 23.9 26.8314 23.4625 26.8376H23.4563C23.025 26.8376 22.6125 26.6689 22.3063 26.3626L15.9813 20.1126L15.6375 21.0001C14.2563 24.5251 15.1063 28.5251 17.8 31.1876C19.275 32.6501 21.1375 33.5626 23.1875 33.8439C25.0125 34.0876 26.8938 33.7939 28.55 33.0064L39.2813 44.3689C39.8688 44.9876 40.6625 45.3376 41.5125 45.3439H41.55C42.3875 45.3439 43.175 45.0189 43.7688 44.4189L44.6313 43.5501C45.2313 42.9439 45.55 42.1376 45.5313 41.2876C45.525 41.1251 45.5125 40.9626 45.4813 40.8126ZM41.525 44.0939C41.0125 44.0876 40.5375 43.8814 40.1875 43.5064L28.8063 31.4564L28.3813 31.6876C25.225 33.4001 21.2313 32.8314 18.675 30.3001C16.575 28.2189 15.7688 25.2001 16.5 22.3814L21.425 27.2564C21.9688 27.7939 22.6875 28.0939 23.4563 28.0939H23.4688C24.2375 28.0876 24.9625 27.7876 25.5063 27.2376L27.2563 25.4689C28.375 24.3376 28.3688 22.5064 27.2375 21.3876L22.3125 16.5126C25.1188 15.7501 28.15 16.5251 30.25 18.6064C32.8063 21.1376 33.4188 25.1189 31.7375 28.3001L31.5125 28.7251L32.2 29.3626L32.425 29.5751L43.675 39.9876C44.05 40.3376 44.2625 40.8064 44.275 41.3189C44.2875 41.8314 44.0938 42.3126 43.7313 42.6751L42.875 43.5376C42.5188 43.9001 42.0375 44.0939 41.525 44.0939Z" fill="#005BFF"/>
<path d="M43.6375 39.7124C43.4875 39.7124 43.3313 39.6562 43.2125 39.5437L32.9875 30.0812C32.7313 29.8437 32.7188 29.4499 32.9563 29.1999C33.1938 28.9437 33.5875 28.9312 33.8375 29.1687L44.0625 38.6312C44.3188 38.8687 44.3313 39.2624 44.0938 39.5124C43.9688 39.6437 43.8 39.7124 43.6375 39.7124Z" fill="#06F3FF"/>
</svg>
