<svg width="64" height="64" viewBox="0 0 64 64" fill="none" xmlns="http://www.w3.org/2000/svg">
<path d="M0.5 46.4875V50.8C0.5 51.875 1.3625 52.7375 2.4375 52.7375H61.55C62.625 52.7375 63.5 51.875 63.5 50.8V46.4875H0.5Z" fill="#D3D9D9"/>
<path d="M56.9 52.7375H61.5625C62.625 52.7375 63.4875 51.875 63.4875 50.8125V46.4875H58.8375V50.8125C58.8375 51.875 57.975 52.7375 56.9 52.7375Z" fill="#A8B2B4"/>
<path d="M7.1 52.7375H2.425C1.3625 52.7375 0.5 51.875 0.5 50.8125V46.4875H5.15V50.8125C5.15 51.875 6.0125 52.7375 7.1 52.7375Z" fill="#EDEDED"/>
<path d="M63.5 6.2251V46.4876H0.5V6.2251C0.5 5.1626 1.3625 4.2876 2.425 4.2876H61.5375C62.6125 4.2876 63.5 5.1626 63.5 6.2251Z" fill="#D3F0FD"/>
<path d="M61.55 3.7876H2.4375C1.1 3.7876 0 4.8751 0 6.2251V50.8001C0 52.1501 1.1 53.2376 2.4375 53.2376H25L22.3 59.2126H20.6625C20.3875 59.2126 20.1625 59.4376 20.1625 59.7126C20.1625 59.9876 20.3875 60.2126 20.6625 60.2126H43.3625C43.6375 60.2126 43.8625 59.9876 43.8625 59.7126C43.8625 59.4376 43.6375 59.2126 43.3625 59.2126H41.725L39 53.2376H61.55C62.9 53.2376 64 52.1376 64 50.8001V6.2251C64 4.8751 62.9 3.7876 61.55 3.7876ZM40.6 59.2126H23.3875L26.0875 53.2376H37.8875L40.6 59.2126ZM63 50.8001C63 51.5876 62.35 52.2376 61.55 52.2376H2.4375C1.65 52.2376 1 51.5876 1 50.8001V46.9876H63V50.8001ZM63 45.9876H1V6.2251C1 5.4251 1.6375 4.7876 2.425 4.7876H61.5375C62.3375 4.7876 62.9875 5.4376 62.9875 6.2251V45.9876H63Z" fill="#333333"/>
<path d="M29.8251 49.6126C29.8251 50.1126 29.425 50.5001 28.9375 50.5001C28.45 50.5001 28.05 50.1001 28.05 49.6126C28.05 49.1251 28.45 48.7251 28.9375 48.7251C29.425 48.7251 29.8251 49.1251 29.8251 49.6126Z" fill="#7C8B8E"/>
<path d="M32.8876 49.6126C32.8876 50.1126 32.4875 50.5001 32 50.5001C31.5125 50.5001 31.1125 50.1001 31.1125 49.6126C31.1125 49.1251 31.5125 48.7251 32 48.7251C32.4875 48.7251 32.8876 49.1251 32.8876 49.6126Z" fill="#7C8B8E"/>
<path d="M35.9625 49.6126C35.9625 50.1126 35.5625 50.5001 35.075 50.5001C34.5875 50.5001 34.1875 50.1001 34.1875 49.6126C34.1875 49.1251 34.5875 48.7251 35.075 48.7251C35.5625 48.7251 35.9625 49.1251 35.9625 49.6126Z" fill="#7C8B8E"/>
<path d="M47.7375 18.4874C45.3 20.9249 41.35 20.9249 38.9 18.4874C36.4625 16.0499 36.4625 12.0874 38.9 9.64993C40.625 7.92493 43.1 7.42493 45.2625 8.13743L40.6375 12.7624L41.4625 15.9249L44.625 16.7499L49.25 12.1249C49.9625 14.2749 49.4625 16.7624 47.7375 18.4874Z" fill="#D3D8D9"/>
<path d="M45.275 8.1375L44.45 8.9625C42.85 8.9625 41.2625 9.575 40.05 10.7875C37.8 13.0375 37.625 16.575 39.525 19.0125C39.3125 18.85 39.1125 18.675 38.9125 18.475C36.475 16.0375 36.475 12.0875 38.9125 9.6375C40.625 7.925 43.1125 7.425 45.275 8.1375Z" fill="#EDEDED"/>
<path d="M47.7375 18.4875C45.3 20.925 41.35 20.925 38.9 18.4875C38.7125 18.3 38.525 18.1 38.375 17.8875C40.825 19.775 44.35 19.6 46.6 17.35C47.8125 16.1375 48.425 14.5375 48.425 12.95L49.25 12.125C49.9625 14.275 49.4625 16.7625 47.7375 18.4875Z" fill="#A8B1B3"/>
<path d="M16.2625 32.2876C18.7 29.8501 22.65 29.8501 25.1 32.2876C27.5375 34.7251 27.5375 38.6876 25.1 41.1251C23.375 42.8501 20.9 43.3501 18.7375 42.6376L23.3625 38.0126L22.5375 34.8501L19.375 34.0251L14.75 38.6501C14.0375 36.4876 14.5375 34.0126 16.2625 32.2876Z" fill="#D3D8D9"/>
<path d="M18.7375 42.6377L19.5625 41.8127C21.1625 41.8127 22.75 41.2002 23.9625 39.9877C26.2125 37.7377 26.3875 34.2002 24.4875 31.7627C24.7 31.9252 24.9001 32.1002 25.1 32.3002C27.5375 34.7377 27.5375 38.6877 25.1 41.1377C23.3751 42.8502 20.9 43.3502 18.7375 42.6377Z" fill="#A8B1B3"/>
<path d="M16.2625 32.2876C18.7 29.8501 22.65 29.8501 25.1 32.2876C25.2875 32.4751 25.475 32.6751 25.625 32.8876C23.175 31.0001 19.65 31.1751 17.4 33.4251C16.1875 34.6376 15.575 36.2376 15.575 37.8251L14.75 38.6501C14.0375 36.4876 14.55 34.0126 16.2625 32.2876Z" fill="#EDEDED"/>
<path d="M34.0375 27.4124C31.625 29.8249 29.0875 32.1374 26.4625 34.3124C26.1625 33.5749 25.7 32.8874 25.1125 32.2874C24.5125 31.6874 23.825 31.2374 23.0875 30.9374C25.275 28.2999 27.575 25.7749 29.9875 23.3624C32.4 20.9499 34.925 18.6499 37.5625 16.4624C37.875 17.1999 38.325 17.8874 38.925 18.4874C39.525 19.0874 40.2125 19.5374 40.95 19.8374C38.75 22.4749 36.45 24.9999 34.0375 27.4124Z" fill="#A8B1B3"/>
<path d="M40.9374 19.8375C38.7499 22.475 36.4499 25.0001 34.0374 27.4125C31.6249 29.8251 29.0999 32.1375 26.4624 34.3125C26.2749 33.8625 26.0374 33.4251 25.7374 33.0251C28.2624 30.9251 30.6874 28.7 32.9999 26.375C35.3124 24.0625 37.5374 21.6375 39.6499 19.1125C40.0499 19.4125 40.4874 19.65 40.9374 19.8375Z" fill="#7C8B8D"/>
<path d="M37.5499 16.4624C37.7374 16.9124 37.975 17.3374 38.275 17.7499C35.75 19.8624 33.325 22.0749 31.0125 24.3999C28.7 26.7249 26.4749 29.1499 24.3624 31.6624C23.9624 31.3624 23.525 31.1249 23.075 30.9374C25.2625 28.2999 27.5625 25.7749 29.975 23.3624C32.3875 20.9374 34.9124 18.6374 37.5499 16.4624Z" fill="#D3D8D9"/>
<path d="M23.094 14.1324L20.7252 16.5012L34.4872 30.2632L36.8559 27.8944L23.094 14.1324Z" fill="#D3D8D9"/>
<path d="M23.1025 14.1283L20.7338 16.4971L22.0773 17.8406L24.446 15.4718L23.1025 14.1283Z" fill="#EDEDED"/>
<path d="M35.5132 26.545L33.1444 28.9138L34.4879 30.2573L36.8567 27.8885L35.5132 26.545Z" fill="#A8B1B3"/>
<path d="M23.1 14.125L20.725 16.5L19.4625 15.6125L17.4125 14.1875L15.7125 11.4875L18.0875 9.11255L20.7875 10.8125L22.2125 12.8625L23.1 14.125Z" fill="#D3D8D9"/>
<path d="M19.35 9.91255L16.5125 12.75L15.7125 11.4875L18.0875 9.11255L19.35 9.91255Z" fill="#EDEDED"/>
<path d="M23.1 14.125L20.725 16.5L19.4625 15.6125L22.2125 12.8625L23.1 14.125Z" fill="#A8B1B3"/>
<path d="M33.55 32.6626L42.5875 41.7001C44.1 43.2126 46.5625 43.3876 48.175 41.9876C49.1 41.1751 49.5625 40.0626 49.5625 38.9376C49.5625 37.9001 49.1625 36.8626 48.375 36.0876L39.25 26.9626C38.85 26.5626 38.1875 26.5626 37.7875 26.9626L33.55 31.2001C33.15 31.6001 33.15 32.2501 33.55 32.6626Z" fill="#FB8A8A"/>
<path d="M47.8625 42.2126C47.9625 42.1376 48.075 42.0501 48.175 41.9751C49.1 41.1626 49.5625 40.0501 49.5625 38.9251C49.5625 37.8876 49.1625 36.8501 48.375 36.0751L39.25 26.9501C38.85 26.5501 38.1875 26.5501 37.7875 26.9501L36.8375 27.9001C37.2375 27.5001 37.9 27.5001 38.3 27.9001L47.425 37.0251C48.2125 37.8126 48.6 38.8501 48.6125 39.8751C48.6125 40.7001 48.3625 41.5251 47.8625 42.2126Z" fill="#FCB1B1"/>
<path d="M33.55 32.6625L42.5875 41.7C44.1 43.2125 46.5625 43.3875 48.175 41.9875C48.425 41.775 48.6375 41.5375 48.8125 41.275C47.2 42.4125 44.95 42.1625 43.5375 40.75L34.5 31.7125C34.1 31.3125 34.1 30.65 34.5 30.25L33.55 31.2C33.15 31.6 33.15 32.25 33.55 32.6625Z" fill="#F96363"/>
<path d="M39.6125 26.6001C39.0125 26.0001 38.0375 26.0001 37.4375 26.6001L36.85 27.1876L35.8875 26.2251C37.6875 24.3501 39.425 22.4126 41.0875 20.4251C43.6 21.3126 46.2875 20.6376 48.0875 18.8376C49.9 17.0251 50.525 14.3876 49.725 11.9626C49.675 11.8001 49.5375 11.6751 49.3625 11.6376C49.2 11.6001 49.0125 11.6501 48.8875 11.7751L44.4625 16.2001L41.8625 15.5251L41.1875 12.9251L45.625 8.4876C45.75 8.3626 45.8 8.1876 45.7625 8.0251C45.725 7.8501 45.6 7.7251 45.4375 7.6626C43 6.8626 40.375 7.4876 38.5625 9.3001C36.675 11.1876 36.15 13.9251 36.9875 16.3001C35 17.9501 33.0625 19.7001 31.1875 21.5001L23.5 13.8126L21.2 10.5251C21.1625 10.4751 21.1125 10.4251 21.05 10.3876L18.35 8.6876C18.15 8.5626 17.9 8.5876 17.725 8.7626L15.35 11.1376C15.1875 11.3001 15.15 11.5626 15.275 11.7626L16.975 14.4626C17.0125 14.5126 17.05 14.5626 17.1125 14.6001L20.3875 16.8876L28.075 24.5751C26.275 26.4501 24.5375 28.3751 22.8875 30.3501C20.375 29.4376 17.65 30.1626 15.8875 31.9376C14.075 33.7501 13.45 36.3876 14.25 38.8126C14.3 38.9751 14.4375 39.1001 14.6125 39.1376C14.775 39.1751 14.9625 39.1251 15.0875 39.0001L19.5125 34.5751L22.1125 35.2501L22.7875 37.8501L18.375 42.2876C18.25 42.4126 18.2 42.5876 18.2375 42.7626C18.275 42.9376 18.4 43.0626 18.5625 43.1251C19.2625 43.3501 19.975 43.4751 20.6875 43.4751C22.4375 43.4751 24.15 42.7876 25.4375 41.5001C27.325 39.6126 27.85 36.8751 27.025 34.5001C29 32.8501 30.925 31.1126 32.8 29.3126L33.7625 30.2751L33.175 30.8626C32.575 31.4626 32.575 32.4376 33.175 33.0376L42.2125 42.0751C43.9375 43.8001 46.6875 43.9376 48.4875 42.3751C50.475 40.6376 50.5875 37.6001 48.725 35.7376L39.6125 26.6001ZM39.2625 10.0001C40.3625 8.9001 41.8125 8.3126 43.3125 8.3126C43.6375 8.3126 43.975 8.3376 44.3 8.4001L40.3 12.4001C40.175 12.5251 40.125 12.7126 40.175 12.8751L41 16.0376C41.05 16.2126 41.1875 16.3501 41.3625 16.4001L44.5125 17.2251C44.6875 17.2626 44.8625 17.2251 44.9875 17.1001L48.9875 13.1001C49.3125 14.9251 48.725 16.8001 47.3875 18.1376C45.15 20.3751 41.5 20.3751 39.2625 18.1376C37.025 15.9001 37.025 12.2501 39.2625 10.0001ZM37.375 17.2501C37.6875 17.8376 38.075 18.3626 38.55 18.8376C39.025 19.3126 39.55 19.7001 40.125 20.0126C38.55 21.8876 36.8875 23.7251 35.175 25.5001L31.8625 22.1876C33.6625 20.4876 35.5 18.8251 37.375 17.2501ZM17.7875 13.8376L16.35 11.5626L18.1625 9.7501L20.4375 11.1751L22.45 14.0626L20.675 15.8376L17.7875 13.8376ZM24.75 40.7626C23.4125 42.1001 21.5375 42.6876 19.7125 42.3626L23.7125 38.3626C23.8375 38.2376 23.8875 38.0501 23.8375 37.8876L23.0125 34.7251C22.9625 34.5501 22.825 34.4126 22.65 34.3626L19.5 33.5376C19.325 33.4876 19.15 33.5376 19.025 33.6626L15.025 37.6626C14.7 35.8376 15.2875 33.9626 16.625 32.6251C18.8375 30.4126 22.4625 30.3376 24.75 32.6251C26.9875 34.8876 26.9875 38.5251 24.75 40.7626ZM26.625 33.5251C26.3125 32.9376 25.925 32.4126 25.45 31.9376C24.975 31.4626 24.45 31.0751 23.875 30.7626C25.45 28.8876 27.1 27.0626 28.8125 25.2876L32.1125 28.5876C30.3375 30.2876 28.5 31.9501 26.625 33.5251ZM21.4375 16.5001L23.1 14.8376L36.15 27.8876L34.4875 29.5501L21.4375 16.5001ZM47.85 41.6001C46.45 42.8126 44.3 42.7001 42.9375 41.3376L33.9 32.3001C33.8 32.2001 33.7375 32.0626 33.7375 31.9251C33.7375 31.7876 33.7875 31.6501 33.9 31.5501L38.1375 27.3126C38.2375 27.2126 38.375 27.1501 38.5125 27.1501C38.65 27.1501 38.7875 27.2001 38.8875 27.3126L48.0125 36.4376C49.4875 37.8876 49.3875 40.2501 47.85 41.6001Z" fill="#333333"/>
<path d="M46.4125 38.6125L38.35 30.55C38.15 30.35 38.15 30.0375 38.35 29.8375C38.55 29.6375 38.8625 29.6375 39.0625 29.8375L47.125 37.9C47.325 38.1 47.325 38.4125 47.125 38.6125C46.925 38.8125 46.6125 38.8125 46.4125 38.6125Z" fill="#333333"/>
<path d="M44.4375 40.4376L36.45 32.4501C36.25 32.2501 36.25 31.9376 36.45 31.7376C36.65 31.5376 36.9625 31.5376 37.1625 31.7376L45.15 39.7251C45.35 39.9251 45.35 40.2376 45.15 40.4376C44.95 40.6376 44.625 40.6376 44.4375 40.4376Z" fill="#333333"/>
</svg>
