<svg width="64" height="64" viewBox="0 0 64 64" fill="none" xmlns="http://www.w3.org/2000/svg">
<g clip-path="url(#clip0_313_2969)">
<path d="M45.3341 32C45.3341 39.3633 39.3653 45.3321 32 45.3321C24.6368 45.3321 18.668 39.3633 18.668 32C18.668 24.6358 24.6368 18.667 32 18.667C39.3653 18.667 45.3341 24.6358 45.3341 32Z" fill="#8CC153"/>
<path d="M18.668 32C18.668 24.7071 24.5235 18.7823 31.7891 18.669V2.66708V0H23.2736V7.31046C22.3986 7.61908 21.5431 7.9736 20.7149 8.37004L15.545 3.20113L3.20325 15.5439L8.37129 20.7119C7.97486 21.5421 7.62133 22.3976 7.31071 23.2726H0V40.7266H7.31046C7.62095 41.6016 7.97461 42.457 8.37104 43.2872L3.203 48.4571L15.5448 60.797L20.7128 55.629C21.543 56.0274 22.3985 56.3789 23.2734 56.6895V64H31.789V61.332V45.332C24.5234 45.2187 18.668 39.2929 18.668 32Z" fill="#A0D468"/>
<path d="M32 0C31.5547 0 31.1094 0.00975762 30.6681 0.0273964V63.9727C31.1094 63.9902 31.5548 64 32 64C49.6738 64 64 49.6719 64 32C64 14.3272 49.6738 0 32 0Z" fill="#4FC2E9"/>
<path d="M32 0C31.5547 0 31.1094 0.00975762 30.6681 0.0273964V63.9727C31.1094 63.9902 31.5548 64 32 64C49.6738 64 64 49.6719 64 32C64 14.3272 49.6738 0 32 0ZM58.1368 45.332H47.8029C49.092 41.5507 49.8458 37.5196 49.9787 33.3329H61.3029C61.1485 36.8241 60.3869 40.2089 59.0314 43.4179C58.7539 44.0684 58.4571 44.7071 58.1368 45.332ZM33.9453 61.2696C33.7422 61.2833 33.5391 61.295 33.3339 61.3048V48H43.8809C41.959 52.2304 39.3125 56.0468 36.004 59.3554C35.338 60.0215 34.6523 60.6603 33.9453 61.2696ZM33.3339 45.332V33.3329H47.3106C47.172 37.4648 46.3906 41.4882 44.9766 45.332H33.3339ZM33.9453 2.72951C34.6523 3.34086 35.338 3.97848 36.004 4.64363C39.3125 7.95321 41.959 11.7706 43.8809 16H33.3339V2.69623C33.5391 2.70499 33.7422 2.71675 33.9453 2.72951ZM44.9765 18.667C46.3906 22.5117 47.1719 26.5361 47.3105 30.6671H33.3339V18.667H44.9765ZM61.3028 30.6671H49.9786C49.8457 26.4794 49.0919 22.4502 47.8047 18.667H58.1368C58.4572 19.2929 58.754 19.9316 59.0313 20.583C60.3868 23.7911 61.1484 27.1767 61.3028 30.6671ZM52.7422 11.2578C54.1992 12.7138 55.4844 14.2997 56.5918 15.9999H46.7909C44.8125 11.2882 41.9863 7.02048 38.5021 3.38765C40.1796 3.76657 41.8203 4.29486 43.4181 4.97063C46.9102 6.44829 50.0489 8.56344 52.7422 11.2578ZM52.7422 52.7422C50.049 55.4376 46.9103 57.5508 43.4181 59.0294C41.8204 59.7051 40.1796 60.2344 38.5021 60.6134C41.9844 56.9805 44.8106 52.7111 46.7911 48.0001H56.592C55.4844 49.6992 54.1992 51.2852 52.7422 52.7422Z" fill="#3BAFDA"/>
</g>
<defs>
<clipPath id="clip0_313_2969">
<rect width="64" height="64" fill="white"/>
</clipPath>
</defs>
</svg>
