<svg width="64" height="64" viewBox="0 0 64 64" fill="none" xmlns="http://www.w3.org/2000/svg">
<g clip-path="url(#clip0_313_2959)">
<path d="M53.5923 31.9848C53.5923 45.8225 42.3739 57.0403 28.5353 57.0403C14.6967 57.0403 3.47827 45.8225 3.47827 31.9848C3.47827 18.1471 14.6966 6.9292 28.5352 6.9292C42.3738 6.9292 53.5923 18.1469 53.5923 31.9848Z" fill="#B5E5BC"/>
<path d="M29.9864 0.00139937C46.5146 0.738523 59.7831 14.0062 60.5203 30.5336C60.5557 31.3246 59.9202 31.9846 59.1285 31.9846H28.5353V1.39327C28.5353 0.601398 29.1953 -0.0338506 29.9864 0.00139937Z" fill="#FC8059"/>
<path d="M59.7062 55.3106L47.6864 43.2605C46.5991 42.1734 44.8363 42.1734 43.7491 43.2605L40.608 40.1197V40.1198C44.4553 34.4344 43.8624 26.6412 38.8275 21.6066C33.1194 15.8987 23.8647 15.8987 18.1566 21.6066C12.4485 27.3144 12.4485 36.5686 18.1566 42.2763C23.1914 47.3109 30.985 47.9037 36.6708 44.0568L39.8118 47.1977C38.7245 48.2848 38.7245 50.0476 39.8118 51.1348L51.8316 63.1849C52.9189 64.272 54.6818 64.272 55.7689 63.1849L59.7062 59.2478C60.7935 58.1604 60.7935 56.3978 59.7062 55.3106Z" fill="#84A7B7"/>
<path d="M40.6078 40.1191L43.7489 43.26L39.8115 47.1971L36.6704 44.0563C37.4308 43.5419 38.1538 42.949 38.8272 42.2758C39.5005 41.6025 40.0934 40.8795 40.6078 40.1191Z" fill="#256277"/>
<path d="M38.2362 31.9411C38.2362 37.3225 33.8734 41.685 28.4918 41.685C23.1102 41.685 18.7474 37.3226 18.7474 31.9411C18.7474 26.5596 23.1102 22.1973 28.4918 22.1973C33.8734 22.1973 38.2362 26.5598 38.2362 31.9411Z" fill="#C3E4ED"/>
<path d="M34.3275 24.1376C35.847 25.2756 37.0216 26.8472 37.6711 28.6683L25.2186 41.12C23.3974 40.4705 21.8255 39.2959 20.6876 37.7765L34.3275 24.1376ZM19.3126 35.2144C19.4756 35.6718 19.6715 36.1132 19.8981 36.5362L33.0868 23.3482C32.664 23.1217 32.2225 22.9259 31.7651 22.7627L19.3126 35.2144Z" fill="#DCF3F9"/>
<path d="M38.2353 31.9845H29.9274C29.1585 31.9845 28.5354 31.3613 28.5354 30.5925V22.1982C31.0146 22.2092 33.4906 23.1596 35.3823 25.0511C37.296 26.9647 38.2463 29.4764 38.2353 31.9845Z" fill="#FED766"/>
<path d="M28.5352 24.6548C30.0728 24.6548 31.3193 25.9013 31.3193 27.4388C31.3193 28.9763 30.0728 30.2228 28.5352 30.2228C26.9976 30.2228 25.7511 28.9763 25.7511 27.4388C25.7512 25.9013 26.9977 24.6548 28.5352 24.6548Z" fill="white"/>
</g>
<defs>
<clipPath id="clip0_313_2959">
<rect width="64" height="64" fill="white"/>
</clipPath>
</defs>
</svg>
